<svg width="94" height="39" viewBox="0 0 94 39" fill="none" xmlns="http://www.w3.org/2000/svg">
<path d="M27.3929 16.198C30.7042 16.198 33.2357 17.1225 34.9875 18.9714C36.7607 20.8204 37.6472 23.4434 37.6472 26.8403C37.6472 30.2372 36.7593 32.8602 34.9835 34.7091C33.2317 36.5581 30.7015 37.4826 27.3929 37.4826H18.4204V16.198H27.3929ZM26.8482 33.2902C27.5798 33.355 28.3162 33.2424 28.9957 32.9618C29.6752 32.6813 30.278 32.2409 30.7536 31.6777C31.6813 30.2447 32.12 28.5466 32.0034 26.8403C32.1238 25.1438 31.6845 23.4547 30.7536 22.0351C30.2836 21.4633 29.6826 21.0148 29.0023 20.7283C28.322 20.4418 27.5828 20.3259 26.8482 20.3904H23.9281V33.2902H26.8482ZM50.39 16.198C53.7013 16.198 56.2328 17.1225 57.9846 18.9714C59.7544 20.8204 60.6393 23.4434 60.6393 26.8403C60.6393 30.2372 59.7527 32.8602 57.9796 34.7091C56.2311 36.5581 53.7013 37.4826 50.39 37.4826H41.4125V16.198H50.39ZM49.8452 33.2902C50.5769 33.355 51.3133 33.2424 51.9928 32.9618C52.6723 32.6813 53.2751 32.2409 53.7507 31.6777C54.6784 30.2447 55.1171 28.5466 55.0004 26.8403C55.1209 25.1438 54.6816 23.4547 53.7507 22.0351C53.2807 21.4633 52.6797 21.0148 51.9994 20.7283C51.3191 20.4418 50.5799 20.3259 49.8452 20.3904H46.9292V33.2902H49.8452ZM68.0186 37.4826L61.9301 16.198H67.7943L71.3833 32.9999L75.1595 16.198H80.1665L84.0439 32.9677L87.5688 16.198H93.2408L87.1172 37.4826H81.1249L78.6214 27.1628L77.66 21.9706H77.5959L76.6666 27.1628L74.2032 37.4826H68.0186Z" fill="white"/>
<path fill-rule="evenodd" clip-rule="evenodd" d="M11.3297 11.5413V38.4907L0.0549316 27.1439V0.19458H26.8333L38.108 11.5413H11.3297Z" fill="white"/>
</svg>
