<svg width="17" height="16" viewBox="0 0 17 16" fill="none" xmlns="http://www.w3.org/2000/svg">
<path d="M16.0858 13.5868C15.8919 14.0379 15.5985 14.4414 15.2266 14.7683C14.8547 15.0951 14.4136 15.3373 13.9348 15.4775C13.303 15.6308 12.6524 15.6967 12.0018 15.6734H4.80187C4.15103 15.6967 3.50007 15.6307 2.86787 15.4775C2.38939 15.3371 1.94852 15.0948 1.57683 14.7679C1.20514 14.4411 0.91182 14.0377 0.717876 13.5868C0.474325 12.8715 0.367207 12.1183 0.401875 11.365V4.31174C0.367321 3.55843 0.474437 2.80531 0.717876 2.08994C0.912 1.63925 1.20539 1.23616 1.57707 0.90948C1.94874 0.582802 2.38952 0.340594 2.86787 0.200233C3.50007 0.0469952 4.15103 -0.0189327 4.80187 0.00432617H12.0018C12.6524 -0.0189825 13.303 0.0469468 13.9348 0.200233C14.4134 0.340406 14.8544 0.582519 15.2263 0.909211C15.5981 1.2359 15.8917 1.63911 16.0858 2.08994C16.3293 2.80531 16.4364 3.55843 16.4018 4.31174V11.365C16.4365 12.1183 16.3294 12.8715 16.0858 13.5868ZM9.56186 9.01C9.23505 8.74708 8.82525 8.60336 8.40236 8.60336C7.97947 8.60336 7.56967 8.74708 7.24286 9.01C7.11986 9.13121 7.04473 9.29123 7.03086 9.46161C6.99816 9.85686 7.00654 10.2543 7.05586 10.6479C7.09786 11.1279 7.17686 11.7686 7.28086 12.421C7.32239 12.7233 7.38487 13.0225 7.46786 13.3164C7.55895 13.4813 7.69383 13.619 7.85824 13.715C8.02265 13.811 8.21047 13.8616 8.40186 13.8616C8.59324 13.8616 8.78107 13.811 8.94548 13.715C9.10989 13.619 9.24476 13.4813 9.33585 13.3164C9.41885 13.0224 9.48166 12.7233 9.52385 12.421C9.62385 11.7696 9.70685 11.1289 9.74785 10.6479C9.79746 10.2544 9.80617 9.85689 9.77385 9.46161C9.76001 9.29151 9.68486 9.1318 9.56186 9.01099V9.01ZM7.09486 6.79999C7.09466 7.05389 7.17135 7.30211 7.31522 7.5133C7.45909 7.72449 7.66367 7.88915 7.90308 7.9864C8.14249 8.08365 8.40597 8.10913 8.66018 8.05965C8.91439 8.01016 9.1479 7.88793 9.33117 7.7084C9.51443 7.52887 9.63922 7.30011 9.68973 7.05108C9.74025 6.80205 9.71422 6.54393 9.61494 6.3094C9.51567 6.07487 9.34761 5.87445 9.13202 5.73352C8.91644 5.59258 8.66303 5.51745 8.40385 5.51764C8.23187 5.51764 8.06158 5.55084 7.9027 5.61534C7.74382 5.67984 7.59946 5.7744 7.4779 5.89358C7.35633 6.01276 7.25994 6.15424 7.19422 6.30994C7.12849 6.46563 7.09473 6.63246 7.09486 6.80094V6.79999ZM8.38786 1.73726C7.0606 1.74094 5.77739 2.20412 4.76499 3.04493C3.75259 3.88575 3.07617 5.05009 2.85528 6.33218C2.63438 7.61427 2.88322 8.93158 3.55782 10.0513C4.23242 11.1711 5.28936 12.0212 6.54186 12.4514C6.55412 12.4558 6.56735 12.457 6.58024 12.4549C6.59312 12.4528 6.60522 12.4474 6.61532 12.4393C6.62543 12.4312 6.63319 12.4206 6.63784 12.4086C6.6425 12.3967 6.64388 12.3837 6.64186 12.3711C6.61286 12.183 6.58586 11.993 6.55986 11.8068C6.55586 11.7745 6.54334 11.7438 6.52353 11.7177C6.50371 11.6916 6.47728 11.671 6.44686 11.6579C5.41266 11.2172 4.56501 10.4409 4.04656 9.45969C3.52811 8.4785 3.37051 7.3523 3.60028 6.27062C3.83006 5.18895 4.43318 4.21783 5.30815 3.52069C6.18312 2.82356 7.27653 2.44295 8.40436 2.44295C9.53219 2.44295 10.6256 2.82356 11.5006 3.52069C12.3755 4.21783 12.9786 5.18895 13.2084 6.27062C13.4382 7.3523 13.2806 8.4785 12.7622 9.45969C12.2437 10.4409 11.3961 11.2172 10.3618 11.6579C10.3314 11.6712 10.305 11.692 10.2852 11.7183C10.2654 11.7446 10.2529 11.7754 10.2489 11.8078C10.2239 11.994 10.1969 12.183 10.1669 12.3711C10.1648 12.3837 10.1662 12.3967 10.1709 12.4086C10.1755 12.4206 10.1833 12.4312 10.1934 12.4393C10.2035 12.4474 10.2156 12.4528 10.2285 12.4549C10.2414 12.457 10.2546 12.4558 10.2668 12.4514C11.5219 12.0203 12.5806 11.1676 13.2549 10.0446C13.9293 8.92156 14.1758 7.60085 13.9507 6.31672C13.7257 5.0326 13.0435 3.86809 12.0254 3.02978C11.0072 2.19147 9.71886 1.73354 8.38885 1.73726H8.38786ZM8.28786 4.26665C8.90896 4.24225 9.52284 4.40449 10.0472 4.73156C10.5715 5.05864 10.9812 5.53491 11.2213 6.09657C11.4615 6.65823 11.5206 7.2784 11.3908 7.8739C11.2609 8.46941 10.9483 9.01179 10.4949 9.4283C10.4699 9.45125 10.4503 9.47926 10.4375 9.5104C10.4247 9.54153 10.419 9.57503 10.4208 9.60854C10.4315 9.81846 10.4292 10.0288 10.4139 10.2384C10.4133 10.252 10.4165 10.2654 10.4231 10.2772C10.4298 10.289 10.4397 10.2988 10.4517 10.3055C10.4637 10.3122 10.4773 10.3155 10.4911 10.3151C10.5049 10.3147 10.5183 10.3105 10.5298 10.3031C11.1958 9.85882 11.6989 9.21713 11.9653 8.47221C12.2318 7.72728 12.2475 6.91833 12.0102 6.16402C11.7729 5.4097 11.2951 4.74971 10.6469 4.28091C9.99863 3.81211 9.2141 3.55917 8.40836 3.55917C7.60262 3.55917 6.81808 3.81211 6.16985 4.28091C5.52162 4.74971 5.04381 5.4097 4.80652 6.16402C4.56923 6.91833 4.58494 7.72728 4.85137 8.47221C5.11779 9.21713 5.62089 9.85882 6.28686 10.3031C6.29832 10.3106 6.31169 10.3148 6.32547 10.3153C6.33924 10.3158 6.35288 10.3124 6.36483 10.3057C6.37679 10.299 6.38659 10.2891 6.39313 10.2773C6.39967 10.2654 6.4027 10.2519 6.40186 10.2384C6.38682 10.0288 6.38482 9.81844 6.39586 9.60854C6.39781 9.57516 6.39219 9.54178 6.37939 9.51079C6.3666 9.47979 6.34695 9.45196 6.32186 9.42929C5.88363 9.02645 5.57669 8.50572 5.4396 7.93253C5.30251 7.35934 5.34138 6.75928 5.55134 6.20766C5.76129 5.65605 6.13297 5.1775 6.61966 4.83216C7.10636 4.48682 7.68638 4.29008 8.28686 4.26665H8.28786Z" fill="white"/>
</svg>
